<?xml version="1.0" encoding="UTF-8"?>
<svg version="1.1" xmlns="http://www.w3.org/2000/svg" width="512" height="512">
<path d="M0 0 C168.96 0 337.92 0 512 0 C512 168.96 512 337.92 512 512 C343.04 512 174.08 512 0 512 C0 343.04 0 174.08 0 0 Z " fill="#FEFEFE" transform="translate(0,0)"/>
<path d="M0 0 C0.33 -0.99 0.66 -1.98 1 -3 C6.61 -3 12.22 -3 18 -3 C18 17.46 18 37.92 18 59 C12.39 59 6.78 59 1 59 C1 58.01 1 57.02 1 56 C0.1646875 56.7425 0.1646875 56.7425 -0.6875 57.5 C-3.38162983 59.24754367 -4.85375007 59.26218749 -8 59 C-8 59.66 -8 60.32 -8 61 C-19.24493506 61.89826404 -27.06091789 60.24257858 -36.125 53.39453125 C-42.31573668 47.77750508 -46.57370555 39.66479743 -47.203125 31.30078125 C-47.38218186 19.88590619 -44.90145697 12.39036947 -37 4 C-26.1575353 -5.9691031 -12.9019183 -6.39387102 0 0 Z " fill="#03164A" transform="translate(189,332)"/>
<path d="M0 0 C7.52617671 6.13530217 10.99202208 13.61495234 11.97265625 23.05859375 C12.4232998 31.9443602 10.34757415 39.62637995 4.8203125 46.703125 C-1.42136832 53.26053287 -8.69250109 57.78079493 -17.86328125 58.6484375 C-25.62031088 58.72898817 -31.67682217 58.50551689 -38.3125 54.3125 C-39.35664063 53.67634766 -39.35664063 53.67634766 -40.421875 53.02734375 C-47.07316157 48.53897556 -51.91463544 41.99434664 -54.3125 34.3125 C-55.51915048 24.46027394 -55.50891804 14.4805056 -49.3125 6.3125 C-36.735454 -9.13406621 -16.45106292 -11.18547649 0 0 Z " fill="#04174B" transform="translate(305.3125,334.6875)"/>
<path d="M0 0 C5.57376989 0.4804974 11.0073107 1.30229687 16.5 2.375 C17.7065625 2.60960937 18.913125 2.84421875 20.15625 3.0859375 C21.0946875 3.38757813 22.033125 3.68921875 23 4 C24.61507485 8.84522456 22.14525888 12.55440328 20 17 C11.95635032 31.05327301 0.60208028 41.24687725 -15.04296875 45.90625 C-32.0206024 50.12623719 -47.6996028 49.26752354 -62.953125 40.3046875 C-66.06493545 38.32120527 -69.04025324 36.20406674 -72 34 C-68.81686734 26.53318349 -61.23694328 20.9575703 -55 16 C-51.16610796 17.43770951 -47.58436131 19.19830545 -43.96484375 21.09765625 C-35.59517462 24.94138104 -26.34989255 22.91531163 -18 20 C-9.17963412 15.67734741 -3.97763149 8.8391811 0 0 Z " fill="#DA6590" transform="translate(290,182)"/>
<path d="M0 0 C0.495 1.485 0.495 1.485 1 3 C-0.43359375 5.69921875 -0.43359375 5.69921875 -2.4375 8.6875 C-3.09621094 9.68136719 -3.75492187 10.67523438 -4.43359375 11.69921875 C-4.95050781 12.45847656 -5.46742188 13.21773438 -6 14 C-6.6290625 13.7834375 -7.258125 13.566875 -7.90625 13.34375 C-13.51445928 11.51939276 -18.10968596 10.67276033 -24 11 C-24.33 12.65 -24.66 14.3 -25 16 C-23.87464844 16.45439453 -23.87464844 16.45439453 -22.7265625 16.91796875 C-1.11876485 25.76247031 -1.11876485 25.76247031 3 34 C3.58912537 39.8236492 3.821669 45.42782442 0.48046875 50.43359375 C-3.78767369 54.94949116 -9.55733911 58.86878268 -15.78125 59.203125 C-27.90760953 59.40628778 -37.24333991 58.84774833 -47 51 C-45.90630138 49.18116422 -44.79968608 47.37009022 -43.6875 45.5625 C-43.07261719 44.55316406 -42.45773437 43.54382813 -41.82421875 42.50390625 C-40 40 -40 40 -37 39 C-35.24853464 39.95534474 -33.49693534 40.91694965 -31.81640625 41.9921875 C-28.18712806 44.00585153 -24.84541753 44.11638707 -20.75 44.0625 C-19.85796875 44.05347656 -18.9659375 44.04445313 -18.046875 44.03515625 C-17.03367187 44.01775391 -17.03367187 44.01775391 -16 44 C-16 43.34 -16 42.68 -16 42 C-15.34 42 -14.68 42 -14 42 C-14.1589265 40.07037755 -14.1589265 40.07037755 -15 38 C-16.98731886 36.52360581 -16.98731886 36.52360581 -19.5 35.4375 C-20.40492188 35.01082031 -21.30984375 34.58414063 -22.2421875 34.14453125 C-24.69098101 33.12824726 -27.07871428 32.34807417 -29.625 31.625 C-35.27323532 29.86933183 -40.05382086 26.11261875 -43.19921875 21.08203125 C-44.71705606 17.13565423 -44.52027759 13.1490491 -44 9 C-41.07708432 2.92033538 -36.02101592 -1.670753 -29.875 -4.375 C-19.18450047 -6.09927412 -9.43396136 -5.61545319 0 0 Z " fill="#04164A" transform="translate(459,333)"/>
<path d="M0 0 C1.8359375 1.63671875 1.8359375 1.63671875 3 3 C1.93071226 4.65499311 0.84402808 6.29875626 -0.25 7.9375 C-0.85328125 8.85402344 -1.4565625 9.77054687 -2.078125 10.71484375 C-4 13 -4 13 -6.046875 13.94140625 C-8 14 -8 14 -11 12 C-13.97449608 11.75780685 -13.97449608 11.75780685 -17.1875 11.875 C-18.27417969 11.89304687 -19.36085938 11.91109375 -20.48046875 11.9296875 C-21.31191406 11.95289063 -22.14335937 11.97609375 -23 12 C-23.33 13.65 -23.66 15.3 -24 17 C-22.9378125 17.36351562 -21.875625 17.72703125 -20.78125 18.1015625 C-10.86515031 21.59095124 -2.10141107 24.92610661 4 34 C4.98497316 39.78671734 4.83308525 45.24126447 2.3125 50.5625 C-3.35100921 56.53214484 -8.14439102 59.70843918 -16.3828125 60.203125 C-26.89434055 60.33479341 -36.46055766 59.69307643 -45 53 C-44.36610765 49.50155614 -42.94822306 47.15913124 -40.9375 44.25 C-40.38964844 43.45078125 -39.84179688 42.6515625 -39.27734375 41.828125 C-38.85582031 41.22484375 -38.43429687 40.6215625 -38 40 C-33.28125 41.83506944 -33.28125 41.83506944 -31.1015625 43.11328125 C-28.14465176 44.36089972 -25.56876096 44.22715166 -22.375 44.1875 C-20.65410156 44.17783203 -20.65410156 44.17783203 -18.8984375 44.16796875 C-16.0607447 44.19483817 -16.0607447 44.19483817 -14 43 C-13.7886547 40.6087705 -13.7886547 40.6087705 -15 38 C-19.23245556 35.3470794 -24.04533724 33.63931132 -29 33 C-29 32.34 -29 31.68 -29 31 C-30.051875 30.9071875 -30.051875 30.9071875 -31.125 30.8125 C-36.14078839 29.39499459 -39.06900412 26.39649382 -41.875 22.1875 C-43.54707581 17.44995187 -44.08842489 13.51640114 -42.0859375 8.88671875 C-38.79395231 3.2478667 -35.02118756 -0.70520533 -28.9375 -3.3125 C-18.77915431 -5.08617941 -9.40721973 -4.46469635 0 0 Z " fill="#03164A" transform="translate(370,332)"/>
<path d="M0 0 C5.61 0 11.22 0 17 0 C17 29.37 17 58.74 17 89 C11.39 89 5.78 89 0 89 C-0.495 69.695 -0.495 69.695 -1 50 C-9.91 49.67 -18.82 49.34 -28 49 C-28 43.72 -28 38.44 -28 33 C-19.09 32.67 -10.18 32.34 -1 32 C-0.67 21.44 -0.34 10.88 0 0 Z " fill="#04154A" transform="translate(115,302)"/>
<path d="M0 0 C5.61 0 11.22 0 17 0 C17 29.7 17 59.4 17 90 C11.39 90 5.78 90 0 90 C0 60.3 0 30.6 0 0 Z " fill="#001449" transform="translate(59,302)"/>
<path d="M0 0 C5.61 0 11.22 0 17 0 C17.01458252 2.34601318 17.02916504 4.69202637 17.04418945 7.10913086 C17.09466123 14.88443566 17.16127821 22.65954285 17.23571491 30.43465328 C17.28032863 35.14595242 17.31960434 39.85716688 17.34643555 44.56860352 C17.37255861 49.12048815 17.41302398 53.67204533 17.46318626 58.22372627 C17.47979432 59.95509309 17.49134617 61.68651646 17.49761391 63.41795158 C17.50861142 75.99607664 17.50861142 75.99607664 21 88 C18.24921116 88.91692961 16.64051087 89.10886083 13.8125 89.0625 C12.554375 89.041875 11.29625 89.02125 10 89 C10 89.66 10 90.32 10 91 C8.35 91 6.7 91 5 91 C4.3490741 89.75264433 3.70448331 88.50198168 3.0625 87.25 C2.52302734 86.20585937 2.52302734 86.20585937 1.97265625 85.140625 C-0.10506724 80.56796447 -0.13815891 76.25677241 -0.11352539 71.29394531 C-0.11374443 70.13727104 -0.11374443 70.13727104 -0.1139679 68.95722961 C-0.11327249 66.4141659 -0.10549749 63.87117588 -0.09765625 61.328125 C-0.09579075 59.56264282 -0.09436747 57.79716013 -0.09336853 56.03167725 C-0.08955375 51.38908454 -0.07973232 46.7465232 -0.06866455 42.10394287 C-0.0584281 37.36487248 -0.05386612 32.62579701 -0.04882812 27.88671875 C-0.03810913 18.59112984 -0.02052072 9.29557244 0 0 Z " fill="#05174B" transform="translate(222,302)"/>
<path d="M0 0 C5.13399681 3.16003434 7.85905507 6.46024432 10.3671875 11.89453125 C10.8621875 12.88453125 10.8621875 12.88453125 11.3671875 13.89453125 C12.18828641 20.38255871 11.20628309 25.56245405 7.3671875 30.89453125 C2.73525584 35.84477101 -1.53024811 38.52643039 -8.3203125 39.33203125 C-14.35699362 39.14910152 -20.09297179 36.44017068 -24.34375 32.1796875 C-28.45051026 26.75544057 -29.09808562 21.64099143 -28.6328125 14.89453125 C-26.34493833 8.25969617 -23.20860035 2.96811805 -16.8125 -0.3671875 C-11.26601964 -2.24583407 -5.41051068 -2.27177229 0 0 Z " fill="#8446DF" transform="translate(304.6328125,121.10546875)"/>
<path d="M0 0 C5.67990503 2.77852259 8.80986652 6.46623441 11.47265625 12.1484375 C13.24542222 17.46673542 13.19477692 22.18673934 10.91015625 27.2734375 C8.08824381 32.35688261 4.04995595 35.69457613 -0.96484375 38.5234375 C-8.21021257 40.29060063 -12.88748412 39.08484859 -19.32421875 35.5703125 C-24.14876436 32.45659867 -26.27828096 28.66513151 -27.52734375 23.1484375 C-28.33753606 17.49638161 -28.05420443 13.27103643 -25.02734375 8.3359375 C-18.57511938 -0.14670712 -10.44088266 -3.5179481 0 0 Z " fill="#8747DC" transform="translate(198.52734375,120.8515625)"/>
<path d="M0 0 C5.61 0 11.22 0 17 0 C17 20.79 17 41.58 17 63 C11.39 63 5.78 63 0 63 C0 42.21 0 21.42 0 0 Z " fill="#0A1B4F" transform="translate(385,329)"/>
<path d="M0 0 C3.79519654 1.67455327 6.21796151 4.11705332 8.9375 7.1875 C10.57980205 11.53477013 10.85502031 15.42598893 10 20 C7.86227955 24.36359431 5.09123467 27.24088023 1.125 30 C-2.74774803 31.23927937 -5.97862555 31.7238474 -10 31 C-15.29112204 28.25268663 -19.09375244 24.71874267 -21 19 C-21.51263673 12.84835922 -20.93032673 8.86670552 -17 4 C-11.99652218 -0.75940574 -6.58394031 -1.10847181 0 0 Z " fill="#F7F8F9" transform="translate(181,345)"/>
<path d="M0 0 C4.32105416 2.33247214 7.16582724 5.44388135 9 10 C9.83440912 14.7553936 10.05890226 19.15286993 7.609375 23.42578125 C3.43522397 28.38939128 0.1085328 30.65460747 -6.375 31.375 C-12.17652754 30.77484198 -15.53994684 28.65216541 -19.375 24.3125 C-21.9542762 19.05474466 -22.76997219 14.45428636 -21 8.8125 C-15.35253809 0.87075669 -9.98054487 -2.05561358 0 0 Z " fill="#F8F8FA" transform="translate(290,345)"/>
<path d="M0 0 C3.0220794 1.74450506 5.41651082 3.83302164 7 7 C7.58141192 11.90047189 7.56677128 14.93124029 4.625 19 C1.9313355 21.7702616 -0.15629184 22.58468972 -4 22.875 C-7.84370816 22.58468972 -9.9313355 21.7702616 -12.625 19 C-15.58209241 14.84998963 -15.80510914 11.99167666 -15 7 C-11.28978721 1.11483489 -6.96793069 -1.32785094 0 0 Z " fill="#091A4C" transform="translate(397,299)"/>
<path d="M0 0 C5.28 0.33 10.56 0.66 16 1 C16 29.71 16 58.42 16 88 C15.67 88 15.34 88 15 88 C15 59.62 15 31.24 15 2 C11.04 2 7.08 2 3 2 C3 30.38 3 58.76 3 88 C9.93 88.495 9.93 88.495 17 89 C17 89.33 17 89.66 17 90 C11.39 90 5.78 90 0 90 C0 60.3 0 30.6 0 0 Z " fill="#1B2A5B" transform="translate(59,302)"/>
<path d="M0 0 C0.33 0 0.66 0 1 0 C2.38670401 6.58684402 3.50454574 13.98824959 0 20 C-1.02345486 16.62097444 -1.1338035 13.52139987 -1.125 10 C-1.12886719 8.453125 -1.12886719 8.453125 -1.1328125 6.875 C-1.01863671 4.40342991 -0.71350656 2.3557042 0 0 Z " fill="#36406B" transform="translate(143,350)"/>
<path d="M0 0 C2.5 1.375 2.5 1.375 5 3 C5 3.66 5 4.32 5 5 C7.97 5.99 10.94 6.98 14 8 C14 8.33 14 8.66 14 9 C8.3240938 8.65249554 4.01764046 7.2252389 0 3 C0 2.01 0 1.02 0 0 Z " fill="#9549CC" transform="translate(280,150)"/>
<path d="M0 0 C3.95781786 0.27612683 5.69956508 0.74053348 8.75 3.375 C11 6 11 6 13 9 C12.67 9.99 12.34 10.98 12 12 C11.74089844 11.40445313 11.48179687 10.80890625 11.21484375 10.1953125 C9.91106383 7.83928576 8.63209396 6.57518257 6.5625 4.875 C5.96566406 4.37742187 5.36882812 3.87984375 4.75390625 3.3671875 C3.22237694 2.17334505 1.6157298 1.0771532 0 0 Z " fill="#7239E9" transform="translate(196,122)"/>
<path d="M0 0 C0.33 0.99 0.66 1.98 1 3 C-1.97 5.31 -4.94 7.62 -8 10 C-8.66 9.67 -9.32 9.34 -10 9 C-8.89902432 7.87187697 -7.79408444 6.74762189 -6.6875 5.625 C-6.07261719 4.99851562 -5.45773437 4.37203125 -4.82421875 3.7265625 C-3 2 -3 2 0 0 Z " fill="#0C1542" transform="translate(266,332)"/>
<path d="M0 0 C1.65 0 3.3 0 5 0 C4.57674417 1.79508501 4.13589265 3.5860283 3.6875 5.375 C3.44386719 6.37273437 3.20023437 7.37046875 2.94921875 8.3984375 C2 11 2 11 -1 13 C-0.44894091 9.0507432 0.38935371 5.65079826 2 2 C1.34 1.34 0.68 0.68 0 0 Z " fill="#C054A0" transform="translate(309,187)"/>
<path d="M0 0 C1.65 0 3.3 0 5 0 C5.33 0.66 5.66 1.32 6 2 C5.236875 2.226875 4.47375 2.45375 3.6875 2.6875 C0.41576791 4.28532265 -0.27670327 5.86673322 -2 9 C-2.99 9.66 -3.98 10.32 -5 11 C-3.55049545 7.2089881 -1.84827434 3.6125362 0 0 Z " fill="#BA54A9" transform="translate(290,182)"/>
<path d="M0 0 C0.66 0.33 1.32 0.66 2 1 C1.21654285 2.17219543 0.42297164 3.33763668 -0.375 4.5 C-0.81585938 5.1496875 -1.25671875 5.799375 -1.7109375 6.46875 C-2.13632813 6.9740625 -2.56171875 7.479375 -3 8 C-3.66 8 -4.32 8 -5 8 C-5.66 9.32 -6.32 10.64 -7 12 C-6.67566492 6.64847115 -3.50295176 3.71719957 0 0 Z " fill="#0A113B" transform="translate(153,335)"/>
<path d="M0 0 C2.31 0.33 4.62 0.66 7 1 C7 1.66 7 2.32 7 3 C8.32 2.67 9.64 2.34 11 2 C11.66 3.32 12.32 4.64 13 6 C11.39253944 5.57476184 9.78910164 5.13429874 8.1875 4.6875 C7.29417969 4.44386719 6.40085938 4.20023438 5.48046875 3.94921875 C2.94752262 2.9799181 1.7283504 2.04990396 0 0 Z " fill="#EF7183" transform="translate(231,223)"/>
<path d="M0 0 C4.10958767 1.45044271 7.43258745 3.51110752 11 6 C10.01 6.495 10.01 6.495 9 7 C7.16015625 6.2578125 7.16015625 6.2578125 5.0625 5.125 C2.67865342 3.85064463 0.58115056 2.86038352 -2 2 C-1.34 1.34 -0.68 0.68 0 0 Z " fill="#CE5C96" transform="translate(235,198)"/>
<path d="M0 0 C0.8353125 0.37125 0.8353125 0.37125 1.6875 0.75 C0.800625 1.3275 -0.08625 1.905 -1 2.5 C-3.90292244 4.43068476 -6.62018649 6.53280064 -9.3125 8.75 C-7.925165 4.2096309 -5.3700603 -0.58054706 0 0 Z " fill="#743DEA" transform="translate(183.3125,122.25)"/>
<path d="M0 0 C1.25127906 3.54667178 0.72285053 5.72253438 -0.4375 9.25 C-0.72496094 10.14203125 -1.01242187 11.0340625 -1.30859375 11.953125 C-1.53675781 12.62859375 -1.76492188 13.3040625 -2 14 C-2.33 14 -2.66 14 -3 14 C-3.29341888 8.32723489 -3.00559652 5.00932754 0 0 Z " fill="#3F456C" transform="translate(330,337)"/>
<path d="M0 0 C0.99 0.33 1.98 0.66 3 1 C-0.88309282 4.64775386 -3.71201818 5.58525633 -9 6 C-8.01 5.67 -7.02 5.34 -6 5 C-5.67 4.34 -5.34 3.68 -5 3 C-2.625 1.3125 -2.625 1.3125 0 0 Z " fill="#9243C9" transform="translate(307,153)"/>
<path d="M0 0 C0.53625 0.268125 1.0725 0.53625 1.625 0.8125 C0.696875 1.410625 -0.23125 2.00875 -1.1875 2.625 C-3.57754718 4.26522845 -5.45970253 5.6843917 -7.375 7.8125 C-7.705 6.8225 -8.035 5.8325 -8.375 4.8125 C-2.95961538 -0.23365385 -2.95961538 -0.23365385 0 0 Z " fill="#7742EC" transform="translate(288.375,122.1875)"/>
<path d="M0 0 C0.33 0.99 0.66 1.98 1 3 C-0.28965176 4.37562854 -1.62689293 5.70766393 -3 7 C-3.66 7 -4.32 7 -5 7 C-3.70700306 4.11562221 -2.34058637 2.12780579 0 0 Z " fill="#C7599D" transform="translate(284,193)"/>
</svg>
